<?xml version="1.0" encoding="UTF-8"?>
<svg xmlns="http://www.w3.org/2000/svg" viewBox="0 0 800 540" fill="none">
  <defs>
    <linearGradient id="bg" x1="0" y1="0" x2="800" y2="540" gradientUnits="userSpaceOnUse">
      <stop offset="0%" stop-color="#FFF8EE" />
      <stop offset="100%" stop-color="#F6F0E3" />
    </linearGradient>
    <linearGradient id="notebook" x1="0" y1="0" x2="1" y2="1">
      <stop offset="0%" stop-color="#F7F1EA" />
      <stop offset="100%" stop-color="#E8D8C8" />
    </linearGradient>
    <linearGradient id="pen" x1="0" y1="0" x2="1" y2="1">
      <stop offset="0%" stop-color="#F2A365" />
      <stop offset="100%" stop-color="#D7B27F" />
    </linearGradient>
  </defs>
  <rect width="800" height="540" rx="48" fill="url(#bg)" />
  <circle cx="220" cy="140" r="100" fill="#FDD9B9" opacity="0.7" />
  <circle cx="590" cy="130" r="78" fill="#D6C7A3" opacity="0.7" />
  <rect x="120" y="160" width="340" height="280" rx="38" fill="url(#notebook)" stroke="#F2A365" stroke-width="12" />
  <rect x="160" y="200" width="260" height="220" rx="24" fill="#fff" />
  <path d="M176 228h232" stroke="#F2A365" stroke-width="6" stroke-linecap="round" />
  <path d="M176 268h232" stroke="#F2A365" stroke-width="6" stroke-linecap="round" />
  <path d="M176 308h232" stroke="#F2A365" stroke-width="6" stroke-linecap="round" />
  <rect x="420" y="180" width="280" height="84" rx="42" fill="#CAD7C1" />
  <rect x="476" y="240" width="180" height="228" rx="30" fill="#F7F3EC" />
  <path d="M520 286c0-12 10-22 22-22h20c12 0 22 10 22 22v148c0 12-10 22-22 22h-20c-12 0-22-10-22-22V286Z" fill="#F2A365" />
  <rect x="520" y="252" width="92" height="24" rx="12" fill="#fff" opacity="0.8" />
  <path d="M520 294h92" stroke="#D7B27F" stroke-width="6" stroke-linecap="round" />
  <rect x="610" y="344" width="44" height="12" rx="6" fill="#D7B27F" />
  <path d="M310 120c0-12 10-22 22-22h264c12 0 22 10 22 22v34c0 12-10 22-22 22H332c-12 0-22-10-22-22v-34Z" fill="#F2A365" opacity="0.9" />
  <path d="M355 116h160" stroke="#fff" stroke-width="8" stroke-linecap="round" />
  <path d="M235 420l220-130" stroke="#F2A365" stroke-width="22" stroke-linecap="round" />
  <path d="M290 352l180-90" stroke="#F2A365" stroke-width="18" stroke-linecap="round" />
  <rect x="70" y="380" width="180" height="130" rx="28" fill="#FFF2E0" stroke="#D7B27F" stroke-width="10" />
  <path d="M120 406h80" stroke="#F2A365" stroke-width="12" stroke-linecap="round" />
  <path d="M120 450h80" stroke="#F2A365" stroke-width="12" stroke-linecap="round" />
</svg>
